<svg width="230" height="50" viewBox="0 0 230 50" fill="none" xmlns="http://www.w3.org/2000/svg">
<circle cx="25" cy="25" r="25" fill="black"/>
<path fill-rule="evenodd" clip-rule="evenodd" d="M23.1382 14C22.4933 14 22.0571 14.5621 22.0571 15.1149V32.8767C22.0571 33.4295 22.4933 34 23.1382 34H26.3815C27.0264 34 27.4625 33.4295 27.4625 32.8767V15.1149C27.4625 14.5621 27.0264 14 26.3815 14H23.1382ZM23.6787 15.6216H25.8409V17.7837H23.6787V15.6216ZM16.0811 16.1621C15.4962 16.1621 15 16.6583 15 17.2432V32.9189C15 33.5038 15.4962 33.9999 16.0811 33.9999H19.3243C19.9092 33.9999 20.4054 33.5038 20.4054 32.9189V17.2432C20.4054 16.6583 19.9092 16.1621 19.3243 16.1621H16.0811ZM16.6216 17.7838H18.7837V19.4054H16.6216V17.7838ZM23.6787 19.4054H25.8409V28.5946H23.6787V19.4054ZM16.6216 21.027H18.7837V29.1351H16.6216V21.027ZM23.6787 30.2162H25.8409V32.3783H23.6787V30.2162ZM16.6216 30.7567H18.7837V32.3783H16.6216V30.7567ZM32.1523 30.698L34.2849 30.3414L34.5523 31.9409L32.4197 32.2974L32.1523 30.698ZM32.9478 22.3444L34.0174 28.742L31.8848 29.0986L30.8152 22.7009L32.9478 22.3444ZM30.2805 19.5021L32.4131 19.1455L32.6805 20.7449L30.5479 21.1015L30.2805 19.5021ZM29.4798 17.9918C28.9325 18.0833 28.4876 18.6129 28.5876 19.2114L30.9122 33.1147C31.0122 33.7132 31.6067 34.0775 32.1539 33.986L35.3528 33.4512C35.9001 33.3597 36.3436 32.8218 36.2436 32.2233L33.919 18.32C33.819 17.7215 33.226 17.3655 32.6787 17.457L29.4798 17.9918Z" fill="white"/>
<path d="M75.782 13.526C75.41 13.934 74.99 14.39 74.522 14.894C74.054 15.386 73.562 15.896 73.046 16.424C72.542 16.94 72.038 17.45 71.534 17.954C71.03 18.458 70.556 18.926 70.112 19.358C70.628 19.718 71.174 20.162 71.75 20.69C72.326 21.218 72.89 21.782 73.442 22.382C73.994 22.982 74.51 23.594 74.99 24.218C75.482 24.842 75.89 25.436 76.214 26H74.162C73.802 25.436 73.388 24.872 72.92 24.308C72.452 23.732 71.954 23.186 71.426 22.67C70.91 22.142 70.382 21.656 69.842 21.212C69.314 20.768 68.798 20.39 68.294 20.078V26H66.548V13.526H68.294V19.034C68.714 18.638 69.176 18.194 69.68 17.702C70.184 17.198 70.682 16.694 71.174 16.19C71.666 15.686 72.128 15.206 72.56 14.75C73.004 14.282 73.376 13.874 73.676 13.526H75.782ZM85.6356 21.32C85.6356 22.064 85.5276 22.736 85.3116 23.336C85.0956 23.936 84.7896 24.452 84.3936 24.884C84.0096 25.316 83.5476 25.652 83.0076 25.892C82.4676 26.12 81.8796 26.234 81.2436 26.234C80.6076 26.234 80.0196 26.12 79.4796 25.892C78.9396 25.652 78.4716 25.316 78.0756 24.884C77.6916 24.452 77.3916 23.936 77.1756 23.336C76.9596 22.736 76.8516 22.064 76.8516 21.32C76.8516 20.588 76.9596 19.922 77.1756 19.322C77.3916 18.71 77.6916 18.188 78.0756 17.756C78.4716 17.324 78.9396 16.994 79.4796 16.766C80.0196 16.526 80.6076 16.406 81.2436 16.406C81.8796 16.406 82.4676 16.526 83.0076 16.766C83.5476 16.994 84.0096 17.324 84.3936 17.756C84.7896 18.188 85.0956 18.71 85.3116 19.322C85.5276 19.922 85.6356 20.588 85.6356 21.32ZM83.8896 21.32C83.8896 20.264 83.6496 19.43 83.1696 18.818C82.7016 18.194 82.0596 17.882 81.2436 17.882C80.4276 17.882 79.7796 18.194 79.2996 18.818C78.8316 19.43 78.5976 20.264 78.5976 21.32C78.5976 22.376 78.8316 23.216 79.2996 23.84C79.7796 24.452 80.4276 24.758 81.2436 24.758C82.0596 24.758 82.7016 24.452 83.1696 23.84C83.6496 23.216 83.8896 22.376 83.8896 21.32ZM91.4468 16.442C91.5908 16.442 91.7528 16.454 91.9328 16.478C92.1248 16.49 92.3108 16.514 92.4908 16.55C92.6708 16.574 92.8328 16.604 92.9768 16.64C93.1328 16.664 93.2468 16.688 93.3188 16.712L93.0308 18.17C92.8988 18.122 92.6768 18.068 92.3648 18.008C92.0648 17.936 91.6748 17.9 91.1948 17.9C90.8828 17.9 90.5708 17.936 90.2588 18.008C89.9588 18.068 89.7608 18.11 89.6648 18.134V26H87.9908V17.036C88.3868 16.892 88.8788 16.76 89.4668 16.64C90.0548 16.508 90.7148 16.442 91.4468 16.442ZM98.1021 24.794C98.4981 24.794 98.8461 24.788 99.1461 24.776C99.4581 24.752 99.7161 24.716 99.9201 24.668V21.878C99.8001 21.818 99.6021 21.77 99.3261 21.734C99.0621 21.686 98.7381 21.662 98.3541 21.662C98.1021 21.662 97.8321 21.68 97.5441 21.716C97.2681 21.752 97.0101 21.83 96.7701 21.95C96.5421 22.058 96.3501 22.214 96.1941 22.418C96.0381 22.61 95.9601 22.868 95.9601 23.192C95.9601 23.792 96.1521 24.212 96.5361 24.452C96.9201 24.68 97.4421 24.794 98.1021 24.794ZM97.9581 16.406C98.6301 16.406 99.1941 16.496 99.6501 16.676C100.118 16.844 100.49 17.09 100.766 17.414C101.054 17.726 101.258 18.104 101.378 18.548C101.498 18.98 101.558 19.46 101.558 19.988V25.838C101.414 25.862 101.21 25.898 100.946 25.946C100.694 25.982 100.406 26.018 100.082 26.054C99.7581 26.09 99.4041 26.12 99.0201 26.144C98.6481 26.18 98.2761 26.198 97.9041 26.198C97.3761 26.198 96.8901 26.144 96.4461 26.036C96.0021 25.928 95.6181 25.76 95.2941 25.532C94.9701 25.292 94.7181 24.98 94.5381 24.596C94.3581 24.212 94.2681 23.75 94.2681 23.21C94.2681 22.694 94.3701 22.25 94.5741 21.878C94.7901 21.506 95.0781 21.206 95.4381 20.978C95.7981 20.75 96.2181 20.582 96.6981 20.474C97.1781 20.366 97.6821 20.312 98.2101 20.312C98.3781 20.312 98.5521 20.324 98.7321 20.348C98.9121 20.36 99.0801 20.384 99.2361 20.42C99.4041 20.444 99.5481 20.468 99.6681 20.492C99.7881 20.516 99.8721 20.534 99.9201 20.546V20.078C99.9201 19.802 99.8901 19.532 99.8301 19.268C99.7701 18.992 99.6621 18.752 99.5061 18.548C99.3501 18.332 99.1341 18.164 98.8581 18.044C98.5941 17.912 98.2461 17.846 97.8141 17.846C97.2621 17.846 96.7761 17.888 96.3561 17.972C95.9481 18.044 95.6421 18.122 95.4381 18.206L95.2401 16.82C95.4561 16.724 95.8161 16.634 96.3201 16.55C96.8241 16.454 97.3701 16.406 97.9581 16.406ZM110.836 21.338C110.836 20.246 110.566 19.406 110.026 18.818C109.486 18.23 108.766 17.936 107.866 17.936C107.362 17.936 106.966 17.954 106.678 17.99C106.402 18.026 106.18 18.068 106.012 18.116V24.02C106.216 24.188 106.51 24.35 106.894 24.506C107.278 24.662 107.698 24.74 108.154 24.74C108.634 24.74 109.042 24.656 109.378 24.488C109.726 24.308 110.008 24.068 110.224 23.768C110.44 23.456 110.596 23.096 110.692 22.688C110.788 22.268 110.836 21.818 110.836 21.338ZM112.582 21.338C112.582 22.046 112.486 22.7 112.294 23.3C112.114 23.9 111.844 24.416 111.484 24.848C111.124 25.28 110.68 25.616 110.152 25.856C109.636 26.096 109.042 26.216 108.37 26.216C107.83 26.216 107.35 26.144 106.93 26C106.522 25.856 106.216 25.718 106.012 25.586V29.33H104.338V16.928C104.734 16.832 105.226 16.73 105.814 16.622C106.414 16.502 107.104 16.442 107.884 16.442C108.604 16.442 109.252 16.556 109.828 16.784C110.404 17.012 110.896 17.336 111.304 17.756C111.712 18.176 112.024 18.692 112.24 19.304C112.468 19.904 112.582 20.582 112.582 21.338ZM118.106 24.794C118.502 24.794 118.85 24.788 119.15 24.776C119.462 24.752 119.72 24.716 119.924 24.668V21.878C119.804 21.818 119.606 21.77 119.33 21.734C119.066 21.686 118.742 21.662 118.358 21.662C118.106 21.662 117.836 21.68 117.548 21.716C117.272 21.752 117.014 21.83 116.774 21.95C116.546 22.058 116.354 22.214 116.198 22.418C116.042 22.61 115.964 22.868 115.964 23.192C115.964 23.792 116.156 24.212 116.54 24.452C116.924 24.68 117.446 24.794 118.106 24.794ZM117.962 16.406C118.634 16.406 119.198 16.496 119.654 16.676C120.122 16.844 120.494 17.09 120.77 17.414C121.058 17.726 121.262 18.104 121.382 18.548C121.502 18.98 121.562 19.46 121.562 19.988V25.838C121.418 25.862 121.214 25.898 120.95 25.946C120.698 25.982 120.41 26.018 120.086 26.054C119.762 26.09 119.408 26.12 119.024 26.144C118.652 26.18 118.28 26.198 117.908 26.198C117.38 26.198 116.894 26.144 116.45 26.036C116.006 25.928 115.622 25.76 115.298 25.532C114.974 25.292 114.722 24.98 114.542 24.596C114.362 24.212 114.272 23.75 114.272 23.21C114.272 22.694 114.374 22.25 114.578 21.878C114.794 21.506 115.082 21.206 115.442 20.978C115.802 20.75 116.222 20.582 116.702 20.474C117.182 20.366 117.686 20.312 118.214 20.312C118.382 20.312 118.556 20.324 118.736 20.348C118.916 20.36 119.084 20.384 119.24 20.42C119.408 20.444 119.552 20.468 119.672 20.492C119.792 20.516 119.876 20.534 119.924 20.546V20.078C119.924 19.802 119.894 19.532 119.834 19.268C119.774 18.992 119.666 18.752 119.51 18.548C119.354 18.332 119.138 18.164 118.862 18.044C118.598 17.912 118.25 17.846 117.818 17.846C117.266 17.846 116.78 17.888 116.36 17.972C115.952 18.044 115.646 18.122 115.442 18.206L115.244 16.82C115.46 16.724 115.82 16.634 116.324 16.55C116.828 16.454 117.374 16.406 117.962 16.406ZM122.981 27.746C123.113 27.806 123.281 27.86 123.485 27.908C123.701 27.968 123.911 27.998 124.115 27.998C124.775 27.998 125.291 27.848 125.663 27.548C126.035 27.26 126.371 26.786 126.671 26.126C125.915 24.686 125.207 23.162 124.547 21.554C123.899 19.934 123.359 18.296 122.927 16.64H124.727C124.859 17.18 125.015 17.762 125.195 18.386C125.387 19.01 125.597 19.652 125.825 20.312C126.053 20.972 126.299 21.632 126.563 22.292C126.827 22.952 127.103 23.588 127.391 24.2C127.847 22.94 128.243 21.692 128.579 20.456C128.915 19.22 129.233 17.948 129.533 16.64H131.261C130.829 18.404 130.349 20.102 129.821 21.734C129.293 23.354 128.723 24.872 128.111 26.288C127.871 26.828 127.619 27.29 127.355 27.674C127.103 28.07 126.821 28.394 126.509 28.646C126.197 28.898 125.843 29.084 125.447 29.204C125.063 29.324 124.625 29.384 124.133 29.384C124.001 29.384 123.863 29.372 123.719 29.348C123.575 29.336 123.431 29.312 123.287 29.276C123.155 29.252 123.029 29.222 122.909 29.186C122.801 29.15 122.723 29.12 122.675 29.096L122.981 27.746ZM140.666 26.108C140.414 26.108 140.138 26.102 139.838 26.09C139.55 26.078 139.256 26.06 138.956 26.036C138.668 26.012 138.38 25.982 138.092 25.946C137.804 25.91 137.54 25.862 137.3 25.802V13.706C137.54 13.646 137.804 13.598 138.092 13.562C138.38 13.526 138.668 13.496 138.956 13.472C139.256 13.448 139.55 13.43 139.838 13.418C140.126 13.406 140.396 13.4 140.648 13.4C141.368 13.4 142.04 13.454 142.664 13.562C143.3 13.67 143.846 13.856 144.302 14.12C144.77 14.372 145.136 14.708 145.4 15.128C145.664 15.548 145.796 16.064 145.796 16.676C145.796 17.36 145.634 17.924 145.31 18.368C144.986 18.8 144.554 19.124 144.014 19.34C144.746 19.556 145.328 19.898 145.76 20.366C146.192 20.834 146.408 21.494 146.408 22.346C146.408 23.594 145.946 24.536 145.022 25.172C144.11 25.796 142.658 26.108 140.666 26.108ZM139.028 20.186V24.578C139.16 24.59 139.316 24.602 139.496 24.614C139.652 24.626 139.832 24.638 140.036 24.65C140.252 24.65 140.498 24.65 140.774 24.65C141.29 24.65 141.776 24.62 142.232 24.56C142.7 24.488 143.108 24.368 143.456 24.2C143.804 24.032 144.08 23.798 144.284 23.498C144.5 23.198 144.608 22.82 144.608 22.364C144.608 21.956 144.53 21.614 144.374 21.338C144.218 21.05 143.99 20.822 143.69 20.654C143.402 20.486 143.054 20.366 142.646 20.294C142.238 20.222 141.782 20.186 141.278 20.186H139.028ZM139.028 18.782H140.864C141.296 18.782 141.704 18.752 142.088 18.692C142.472 18.632 142.802 18.524 143.078 18.368C143.366 18.212 143.588 18.008 143.744 17.756C143.912 17.504 143.996 17.186 143.996 16.802C143.996 16.442 143.912 16.142 143.744 15.902C143.576 15.65 143.342 15.452 143.042 15.308C142.754 15.152 142.412 15.038 142.016 14.966C141.62 14.894 141.2 14.858 140.756 14.858C140.312 14.858 139.964 14.864 139.712 14.876C139.46 14.888 139.232 14.906 139.028 14.93V18.782ZM157.02 21.32C157.02 22.064 156.912 22.736 156.696 23.336C156.48 23.936 156.174 24.452 155.778 24.884C155.394 25.316 154.932 25.652 154.392 25.892C153.852 26.12 153.264 26.234 152.628 26.234C151.992 26.234 151.404 26.12 150.864 25.892C150.324 25.652 149.856 25.316 149.46 24.884C149.076 24.452 148.776 23.936 148.56 23.336C148.344 22.736 148.236 22.064 148.236 21.32C148.236 20.588 148.344 19.922 148.56 19.322C148.776 18.71 149.076 18.188 149.46 17.756C149.856 17.324 150.324 16.994 150.864 16.766C151.404 16.526 151.992 16.406 152.628 16.406C153.264 16.406 153.852 16.526 154.392 16.766C154.932 16.994 155.394 17.324 155.778 17.756C156.174 18.188 156.48 18.71 156.696 19.322C156.912 19.922 157.02 20.588 157.02 21.32ZM155.274 21.32C155.274 20.264 155.034 19.43 154.554 18.818C154.086 18.194 153.444 17.882 152.628 17.882C151.812 17.882 151.164 18.194 150.684 18.818C150.216 19.43 149.982 20.264 149.982 21.32C149.982 22.376 150.216 23.216 150.684 23.84C151.164 24.452 151.812 24.758 152.628 24.758C153.444 24.758 154.086 24.452 154.554 23.84C155.034 23.216 155.274 22.376 155.274 21.32ZM167.638 21.32C167.638 22.064 167.53 22.736 167.314 23.336C167.098 23.936 166.792 24.452 166.396 24.884C166.012 25.316 165.55 25.652 165.01 25.892C164.47 26.12 163.882 26.234 163.246 26.234C162.61 26.234 162.022 26.12 161.482 25.892C160.942 25.652 160.474 25.316 160.078 24.884C159.694 24.452 159.394 23.936 159.178 23.336C158.962 22.736 158.854 22.064 158.854 21.32C158.854 20.588 158.962 19.922 159.178 19.322C159.394 18.71 159.694 18.188 160.078 17.756C160.474 17.324 160.942 16.994 161.482 16.766C162.022 16.526 162.61 16.406 163.246 16.406C163.882 16.406 164.47 16.526 165.01 16.766C165.55 16.994 166.012 17.324 166.396 17.756C166.792 18.188 167.098 18.71 167.314 19.322C167.53 19.922 167.638 20.588 167.638 21.32ZM165.892 21.32C165.892 20.264 165.652 19.43 165.172 18.818C164.704 18.194 164.062 17.882 163.246 17.882C162.43 17.882 161.782 18.194 161.302 18.818C160.834 19.43 160.6 20.264 160.6 21.32C160.6 22.376 160.834 23.216 161.302 23.84C161.782 24.452 162.43 24.758 163.246 24.758C164.062 24.758 164.704 24.452 165.172 23.84C165.652 23.216 165.892 22.376 165.892 21.32ZM173.377 20.852C173.737 21.128 174.115 21.47 174.511 21.878C174.919 22.286 175.315 22.73 175.699 23.21C176.095 23.678 176.467 24.158 176.815 24.65C177.163 25.13 177.457 25.58 177.697 26H175.735C175.483 25.58 175.189 25.154 174.853 24.722C174.529 24.278 174.187 23.858 173.827 23.462C173.467 23.054 173.101 22.682 172.729 22.346C172.357 22.01 172.003 21.728 171.667 21.5V26H169.993V12.32L171.667 12.032V20.564C171.955 20.276 172.273 19.958 172.621 19.61C172.969 19.262 173.311 18.908 173.647 18.548C173.983 18.188 174.301 17.846 174.601 17.522C174.901 17.186 175.159 16.892 175.375 16.64H177.337C177.061 16.94 176.761 17.27 176.437 17.63C176.113 17.99 175.777 18.356 175.429 18.728C175.081 19.088 174.727 19.454 174.367 19.826C174.019 20.186 173.689 20.528 173.377 20.852ZM189.035 26.27C188.159 26.27 187.361 26.126 186.641 25.838C185.921 25.55 185.303 25.13 184.787 24.578C184.271 24.026 183.869 23.348 183.581 22.544C183.305 21.728 183.167 20.798 183.167 19.754C183.167 18.71 183.323 17.786 183.635 16.982C183.959 16.166 184.391 15.482 184.931 14.93C185.471 14.378 186.101 13.958 186.821 13.67C187.541 13.382 188.309 13.238 189.125 13.238C189.641 13.238 190.103 13.274 190.511 13.346C190.931 13.418 191.291 13.502 191.591 13.598C191.903 13.694 192.155 13.79 192.347 13.886C192.539 13.982 192.671 14.054 192.743 14.102L192.239 15.542C192.131 15.47 191.975 15.392 191.771 15.308C191.567 15.224 191.333 15.14 191.069 15.056C190.817 14.972 190.535 14.906 190.223 14.858C189.923 14.798 189.617 14.768 189.305 14.768C188.645 14.768 188.051 14.882 187.523 15.11C186.995 15.338 186.545 15.668 186.173 16.1C185.801 16.532 185.513 17.06 185.309 17.684C185.117 18.296 185.021 18.986 185.021 19.754C185.021 20.498 185.105 21.176 185.273 21.788C185.453 22.4 185.717 22.928 186.065 23.372C186.413 23.804 186.845 24.14 187.361 24.38C187.889 24.62 188.501 24.74 189.197 24.74C190.001 24.74 190.667 24.656 191.195 24.488C191.723 24.32 192.119 24.17 192.383 24.038L192.833 25.478C192.749 25.538 192.599 25.616 192.383 25.712C192.167 25.796 191.897 25.88 191.573 25.964C191.249 26.048 190.871 26.12 190.439 26.18C190.007 26.24 189.539 26.27 189.035 26.27ZM197.533 26.18C196.501 26.156 195.769 25.934 195.337 25.514C194.905 25.094 194.689 24.44 194.689 23.552V12.32L196.363 12.032V23.282C196.363 23.558 196.387 23.786 196.435 23.966C196.483 24.146 196.561 24.29 196.669 24.398C196.777 24.506 196.921 24.59 197.101 24.65C197.281 24.698 197.503 24.74 197.767 24.776L197.533 26.18ZM207.099 25.73C206.715 25.826 206.205 25.928 205.569 26.036C204.945 26.144 204.219 26.198 203.391 26.198C202.671 26.198 202.065 26.096 201.573 25.892C201.081 25.676 200.685 25.376 200.385 24.992C200.085 24.608 199.869 24.158 199.737 23.642C199.605 23.114 199.539 22.532 199.539 21.896V16.64H201.213V21.536C201.213 22.676 201.393 23.492 201.753 23.984C202.113 24.476 202.719 24.722 203.571 24.722C203.751 24.722 203.937 24.716 204.129 24.704C204.321 24.692 204.501 24.68 204.669 24.668C204.837 24.644 204.987 24.626 205.119 24.614C205.263 24.59 205.365 24.566 205.425 24.542V16.64H207.099V25.73ZM211.657 17.054C211.861 16.922 212.167 16.784 212.575 16.64C212.995 16.496 213.475 16.424 214.015 16.424C214.687 16.424 215.281 16.544 215.797 16.784C216.325 17.024 216.769 17.36 217.129 17.792C217.489 18.224 217.759 18.74 217.939 19.34C218.131 19.94 218.227 20.6 218.227 21.32C218.227 22.076 218.113 22.76 217.885 23.372C217.669 23.972 217.357 24.482 216.949 24.902C216.541 25.322 216.049 25.646 215.473 25.874C214.897 26.102 214.249 26.216 213.529 26.216C212.749 26.216 212.059 26.162 211.459 26.054C210.859 25.946 210.367 25.838 209.983 25.73V12.32L211.657 12.032V17.054ZM211.657 24.542C211.825 24.59 212.059 24.638 212.359 24.686C212.671 24.722 213.055 24.74 213.511 24.74C214.411 24.74 215.131 24.446 215.671 23.858C216.211 23.258 216.481 22.412 216.481 21.32C216.481 20.84 216.433 20.39 216.337 19.97C216.241 19.55 216.085 19.19 215.869 18.89C215.653 18.578 215.371 18.338 215.023 18.17C214.687 17.99 214.279 17.9 213.799 17.9C213.343 17.9 212.923 17.978 212.539 18.134C212.155 18.29 211.861 18.452 211.657 18.62V24.542Z" fill="black"/>
<path d="M72.588 44C72.452 43.64 72.324 43.288 72.204 42.944C72.084 42.592 71.96 42.236 71.832 41.876H68.064L67.308 44H66.096C66.416 43.12 66.716 42.308 66.996 41.564C67.276 40.812 67.548 40.1 67.812 39.428C68.084 38.756 68.352 38.116 68.616 37.508C68.88 36.892 69.156 36.284 69.444 35.684H70.512C70.8 36.284 71.076 36.892 71.34 37.508C71.604 38.116 71.868 38.756 72.132 39.428C72.404 40.1 72.68 40.812 72.96 41.564C73.24 42.308 73.54 43.12 73.86 44H72.588ZM71.496 40.916C71.24 40.22 70.984 39.548 70.728 38.9C70.48 38.244 70.22 37.616 69.948 37.016C69.668 37.616 69.4 38.244 69.144 38.9C68.896 39.548 68.648 40.22 68.4 40.916H71.496ZM78.7967 39.08C78.6607 38.968 78.4647 38.86 78.2087 38.756C77.9527 38.652 77.6727 38.6 77.3687 38.6C77.0487 38.6 76.7727 38.66 76.5407 38.78C76.3167 38.892 76.1327 39.052 75.9887 39.26C75.8447 39.46 75.7407 39.7 75.6767 39.98C75.6127 40.26 75.5807 40.56 75.5807 40.88C75.5807 41.608 75.7607 42.172 76.1207 42.572C76.4807 42.964 76.9607 43.16 77.5607 43.16C77.8647 43.16 78.1167 43.148 78.3167 43.124C78.5247 43.092 78.6847 43.06 78.7967 43.028V39.08ZM78.7967 34.88L79.9127 34.688V43.82C79.6567 43.892 79.3287 43.964 78.9287 44.036C78.5287 44.108 78.0687 44.144 77.5487 44.144C77.0687 44.144 76.6367 44.068 76.2527 43.916C75.8687 43.764 75.5407 43.548 75.2687 43.268C74.9967 42.988 74.7847 42.648 74.6327 42.248C74.4887 41.84 74.4167 41.384 74.4167 40.88C74.4167 40.4 74.4767 39.96 74.5967 39.56C74.7247 39.16 74.9087 38.816 75.1487 38.528C75.3887 38.24 75.6807 38.016 76.0247 37.856C76.3767 37.696 76.7767 37.616 77.2247 37.616C77.5847 37.616 77.9007 37.664 78.1727 37.76C78.4527 37.856 78.6607 37.948 78.7967 38.036V34.88ZM81.8311 37.94C82.0871 37.876 82.4231 37.808 82.8391 37.736C83.2631 37.664 83.7511 37.628 84.3031 37.628C84.7031 37.628 85.0391 37.684 85.3111 37.796C85.5831 37.9 85.8111 38.056 85.9951 38.264C86.0511 38.224 86.1391 38.168 86.2591 38.096C86.3791 38.024 86.5271 37.956 86.7031 37.892C86.8791 37.82 87.0751 37.76 87.2911 37.712C87.5071 37.656 87.7391 37.628 87.9871 37.628C88.4671 37.628 88.8591 37.7 89.1631 37.844C89.4671 37.98 89.7031 38.176 89.8711 38.432C90.0471 38.688 90.1631 38.992 90.2191 39.344C90.2831 39.696 90.3151 40.08 90.3151 40.496V44H89.1991V40.736C89.1991 40.368 89.1791 40.052 89.1391 39.788C89.1071 39.524 89.0391 39.304 88.9351 39.128C88.8391 38.952 88.7031 38.824 88.5271 38.744C88.3591 38.656 88.1391 38.612 87.8671 38.612C87.4911 38.612 87.1791 38.664 86.9311 38.768C86.6911 38.864 86.5271 38.952 86.4391 39.032C86.5031 39.24 86.5511 39.468 86.5831 39.716C86.6151 39.964 86.6311 40.224 86.6311 40.496V44H85.5151V40.736C85.5151 40.368 85.4951 40.052 85.4551 39.788C85.4151 39.524 85.3431 39.304 85.2391 39.128C85.1431 38.952 85.0071 38.824 84.8311 38.744C84.6631 38.656 84.4471 38.612 84.1831 38.612C84.0711 38.612 83.9511 38.616 83.8231 38.624C83.6951 38.632 83.5711 38.644 83.4511 38.66C83.3391 38.668 83.2351 38.68 83.1391 38.696C83.0431 38.712 82.9791 38.724 82.9471 38.732V44H81.8311V37.94ZM93.283 44H92.167V37.76H93.283V44ZM92.719 36.632C92.519 36.632 92.347 36.568 92.203 36.44C92.067 36.304 91.999 36.124 91.999 35.9C91.999 35.676 92.067 35.5 92.203 35.372C92.347 35.236 92.519 35.168 92.719 35.168C92.919 35.168 93.087 35.236 93.223 35.372C93.367 35.5 93.439 35.676 93.439 35.9C93.439 36.124 93.367 36.304 93.223 36.44C93.087 36.568 92.919 36.632 92.719 36.632ZM95.2022 37.94C95.4582 37.876 95.7982 37.808 96.2222 37.736C96.6462 37.664 97.1342 37.628 97.6862 37.628C98.1822 37.628 98.5942 37.7 98.9222 37.844C99.2502 37.98 99.5102 38.176 99.7022 38.432C99.9022 38.68 100.042 38.98 100.122 39.332C100.202 39.684 100.242 40.072 100.242 40.496V44H99.1262V40.736C99.1262 40.352 99.0982 40.024 99.0422 39.752C98.9942 39.48 98.9102 39.26 98.7902 39.092C98.6702 38.924 98.5102 38.804 98.3102 38.732C98.1102 38.652 97.8622 38.612 97.5662 38.612C97.4462 38.612 97.3222 38.616 97.1942 38.624C97.0662 38.632 96.9422 38.644 96.8222 38.66C96.7102 38.668 96.6062 38.68 96.5102 38.696C96.4222 38.712 96.3582 38.724 96.3182 38.732V44H95.2022V37.94Z" fill="#AAAAAA"/>
</svg>
